<svg width="33" height="30" viewBox="0 0 33 30" fill="none" xmlns="http://www.w3.org/2000/svg">
<g filter="url(#filter0_d_1802_214)">
<path d="M6.34375 0.788727C5.0498 0.788727 4 1.94795 4 3.37675C4 4.19091 4.34668 4.95653 4.9375 5.44718L15.5625 14.2465C16.1191 14.7048 16.8809 14.7048 17.4375 14.2465L28.0625 5.44718C28.6533 4.95653 29 4.19091 29 3.37675C29 1.94795 27.9502 0.788727 26.6562 0.788727H6.34375ZM4 6.82746V18.0422C4 19.9455 5.40137 21.493 7.125 21.493H25.875C27.5986 21.493 29 19.9455 29 18.0422V6.82746L18.375 15.6268C17.2617 16.5487 15.7383 16.5487 14.625 15.6268L4 6.82746Z" fill="white"/>
</g>
<defs>
<filter id="filter0_d_1802_214" x="0" y="0.788727" width="33" height="28.7042" filterUnits="userSpaceOnUse" color-interpolation-filters="sRGB">
<feFlood flood-opacity="0" result="BackgroundImageFix"/>
<feColorMatrix in="SourceAlpha" type="matrix" values="0 0 0 0 0 0 0 0 0 0 0 0 0 0 0 0 0 0 127 0" result="hardAlpha"/>
<feOffset dy="4"/>
<feGaussianBlur stdDeviation="2"/>
<feComposite in2="hardAlpha" operator="out"/>
<feColorMatrix type="matrix" values="0 0 0 0 0 0 0 0 0 0 0 0 0 0 0 0 0 0 0.25 0"/>
<feBlend mode="normal" in2="BackgroundImageFix" result="effect1_dropShadow_1802_214"/>
<feBlend mode="normal" in="SourceGraphic" in2="effect1_dropShadow_1802_214" result="shape"/>
</filter>
</defs>
</svg>
